<?xml version="1.0" encoding="UTF-8"?>
<!DOCTYPE svg PUBLIC "-//W3C//DTD SVG 1.1//EN" "http://www.w3.org/Graphics/SVG/1.1/DTD/svg11.dtd">
<!-- Creator: CorelDRAW -->
<svg xmlns="http://www.w3.org/2000/svg" xml:space="preserve" width="2048px" height="2048px" style="shape-rendering:geometricPrecision; text-rendering:geometricPrecision; image-rendering:optimizeQuality; fill-rule:evenodd; clip-rule:evenodd"
viewBox="0 0 2048 2048"
 xmlns:xlink="http://www.w3.org/1999/xlink">
 <defs>
  <style type="text/css">
   <![CDATA[
    .fil1 {fill:none}
    .fil3 {fill:#5D4037}
    .fil2 {fill:#E53935}
    .fil0 {fill:#FFD54F}
   ]]>
  </style>
 </defs>
 <g id="Layer_x0020_1">
  <metadata id="CorelCorpID_0Corel-Layer"/>
  <path class="fil0" d="M1024 255.999c424.155,0 768.001,343.845 768.001,768.001 0,424.155 -343.845,768.001 -768.001,768.001 -424.155,0 -768.001,-343.845 -768.001,-768.001 0,-424.155 343.845,-768.001 768.001,-768.001z"/>
  <rect class="fil1" width="2048" height="2048"/>
  <rect class="fil1" x="255.999" y="255.999" width="1536" height="1536"/>
  <path class="fil2" d="M1027.32 976.996c39.7618,0 75.7631,16.1197 101.822,42.1784 26.0599,26.061 42.1784,62.0611 42.1784,101.822 0,39.7618 -16.1197,75.7631 -42.1784,101.822 -26.0587,26.0587 -62.0599,42.1784 -101.822,42.1784 -39.7618,0 -75.7631,-16.1197 -101.822,-42.1784 -26.0587,-26.0587 -42.1784,-62.0599 -42.1784,-101.822 0,-39.7607 16.1185,-75.7607 42.1784,-101.822 26.0587,-26.0587 62.0599,-42.1784 101.822,-42.1784z"/>
  <path class="fil3" d="M732.909 656.995c35.3469,0 64.0004,28.6536 64.0004,64.0004 0,35.3469 -28.6536,64.0004 -64.0004,64.0004 -35.3469,0 -64.0004,-28.6536 -64.0004,-64.0004 0,-35.3469 28.6536,-64.0004 64.0004,-64.0004z"/>
  <path class="fil3" d="M1299.3 656.995c35.3469,0 64.0004,28.6536 64.0004,64.0004 0,35.3469 -28.6536,64.0004 -64.0004,64.0004 -35.3469,0 -64.0004,-28.6536 -64.0004,-64.0004 0,-35.3469 28.6536,-64.0004 64.0004,-64.0004z"/>
  <path class="fil3" d="M675.09 1323.17c54.404,312.78 657.185,300.019 704.001,0 -114.196,155.313 -489.486,229.459 -704.001,0z"/>
 </g>
</svg>
