<svg xmlns="http://www.w3.org/2000/svg" width="128" height="128" viewBox="0 0 128 128">
  <title>CLOWN</title>
  <g>
    <path d="M109.84,104.271v17.42H64V83.672H75.5l25.36,8.24A12.987,12.987,0,0,1,109.84,104.271Z" fill="#fee97d"/>
    <path d="M64,83.672v38.019H18.16v-17.42a13,13,0,0,1,8.98-12.359l25.36-8.24Z" fill="#ffb65f"/>
    <path d="M95.64,90.212s-1.21,9.269-11.21,8.86c-12.39-.5-9.31,6.2-20.43,6.2s-8.04-6.7-20.42-6.2c-10.01.409-11.22-8.86-11.22-8.86l20.14-6.54h23Z" fill="#f07281"/>
    <path d="M103.536,45.07a7.766,7.766,0,0,0-4.37-6.981,7.762,7.762,0,0,0-4.225-12.826,7.763,7.763,0,0,0-10.072-8.651,7.759,7.759,0,0,0-13.485-4.959,7.77,7.77,0,0,0-14.763,0,7.759,7.759,0,0,0-13.485,4.959,7.736,7.736,0,0,0-10.072,8.651,7.763,7.763,0,0,0-4.225,12.826,7.764,7.764,0,0,0,.226,14.071,7.773,7.773,0,0,0,9.187,12.109h0a26.286,26.286,0,0,1-.3-3.982V47.322a7.775,7.775,0,0,0,7.733-6.975A7.768,7.768,0,0,0,57.55,39.11a7.775,7.775,0,0,0,12.906,0,7.768,7.768,0,0,0,11.867,1.237,7.774,7.774,0,0,0,7.733,6.975V60.287a26.263,26.263,0,0,1-.3,3.981A7.77,7.77,0,0,0,98.94,52.16,7.769,7.769,0,0,0,103.536,45.07Z" fill="#f07281"/>
    <path d="M90.056,47.322a7.774,7.774,0,0,1-7.733-6.975A7.768,7.768,0,0,1,70.456,39.11a7.775,7.775,0,0,1-12.906,0,7.768,7.768,0,0,1-11.867,1.237,7.775,7.775,0,0,1-7.734,6.975V60.287A26.054,26.054,0,0,0,64,86.34h0A26.054,26.054,0,0,0,90.056,60.287Z" fill="#eaf6ff"/>
    <circle cx="64.003" cy="63.717" r="4.839" fill="#f07281"/>
    <g>
      <path d="M18.159,111.913a1.75,1.75,0,0,0-1.75,1.75v8.03a1.75,1.75,0,0,0,3.5,0v-8.03A1.75,1.75,0,0,0,18.159,111.913Z"/>
      <path d="M101.4,90.244,79.724,83.2a27.872,27.872,0,0,0,11.36-16.656,9.516,9.516,0,0,0,10.348-13.829,9.541,9.541,0,0,0,3.851-7.644,9.444,9.444,0,0,0-3.616-7.467,9.48,9.48,0,0,0,.975-2.409,1.75,1.75,0,1,0-3.395-.853,6.059,6.059,0,0,1-1.382,2.575,1.751,1.751,0,0,0,.53,2.745,6.015,6.015,0,0,1-.174,10.9,1.749,1.749,0,0,0-.61,2.738,6.017,6.017,0,0,1-5.949,9.785c.092-.921.141-1.855.141-2.8V47.321a1.751,1.751,0,0,0-1.75-1.75,6,6,0,0,1-5.992-5.4A1.75,1.75,0,0,0,81.1,39.09a6.018,6.018,0,0,1-9.2-.959,1.748,1.748,0,0,0-2.9,0,6.025,6.025,0,0,1-10,0,1.749,1.749,0,0,0-2.9,0,6.017,6.017,0,0,1-9.195.96,1.75,1.75,0,0,0-2.961,1.077,6,6,0,0,1-5.992,5.4,1.75,1.75,0,0,0-1.75,1.75V60.285a27.867,27.867,0,0,0,.141,2.8,6.017,6.017,0,0,1-5.95-9.785,1.748,1.748,0,0,0-.609-2.738,6.015,6.015,0,0,1-.175-10.9,1.749,1.749,0,0,0,.53-2.745,6.014,6.014,0,0,1,3.271-9.938,1.749,1.749,0,0,0,1.383-2,6.015,6.015,0,0,1,7.8-6.7,1.75,1.75,0,0,0,2.291-1.6,6.009,6.009,0,0,1,10.447-3.84,1.749,1.749,0,0,0,2.952-.635,6.02,6.02,0,0,1,11.439,0,1.749,1.749,0,0,0,2.952.635,6.009,6.009,0,0,1,10.446,3.841,1.749,1.749,0,0,0,2.292,1.6,6.038,6.038,0,0,1,5.341.8,1.75,1.75,0,0,0,2.021-2.858,9.523,9.523,0,0,0-6.445-1.7A9.505,9.505,0,0,0,71.979,8.882a9.523,9.523,0,0,0-15.959,0,9.5,9.5,0,0,0-14.347,5.641c-.315-.031-.632-.047-.949-.047A9.534,9.534,0,0,0,31.2,23.984,9.514,9.514,0,0,0,26.332,37.6a9.444,9.444,0,0,0-3.616,7.467,9.539,9.539,0,0,0,3.852,7.644A9.513,9.513,0,0,0,36.915,66.542,27.883,27.883,0,0,0,48.276,83.2L31.788,88.558h0L26.6,90.244a14.712,14.712,0,0,0-10.191,14.027,1.75,1.75,0,0,0,3.5,0,11.223,11.223,0,0,1,7.773-10.7L31.1,92.46c1.251,3.8,4.849,8.673,12.54,8.363,5.827-.24,7.682,1.15,9.833,2.756a14.5,14.5,0,0,0,8.773,3.376v14.738a1.75,1.75,0,0,0,3.5,0V106.955a14.5,14.5,0,0,0,8.773-3.376c2.152-1.606,4-2.994,9.832-2.756,7.714.321,11.3-4.563,12.544-8.363l3.419,1.112a11.221,11.221,0,0,1,7.773,10.7v17.422a1.75,1.75,0,0,0,3.5,0V104.271A14.713,14.713,0,0,0,101.4,90.244ZM39.7,60.285V48.912a9.488,9.488,0,0,0,7.036-5.671,9.528,9.528,0,0,0,10.814-1.463,9.525,9.525,0,0,0,12.906,0,9.528,9.528,0,0,0,10.814,1.463A9.486,9.486,0,0,0,88.3,48.912V60.285a24.3,24.3,0,0,1-48.606,0ZM84.5,97.326c-7.051-.292-9.722,1.7-12.068,3.448-1.972,1.472-3.675,2.744-8.43,2.744s-6.458-1.272-8.43-2.744c-2.345-1.751-4.991-3.741-12.068-3.448-6.1.248-8.3-3.754-9.051-5.954L52.394,85.54a27.709,27.709,0,0,0,23.211,0l17.948,5.832C92.81,93.576,90.617,97.57,84.5,97.326Z"/>
      <path d="M94.594,26.977a5.994,5.994,0,0,1,3.1,1.682A1.75,1.75,0,1,0,100.19,26.2a9.483,9.483,0,0,0-4.907-2.657,1.75,1.75,0,1,0-.689,3.431Z"/>
      <path d="M64,70.305a6.589,6.589,0,1,0-6.589-6.589A6.6,6.6,0,0,0,64,70.305Zm0-9.678a3.089,3.089,0,1,1-3.089,3.089A3.093,3.093,0,0,1,64,60.627Z"/>
      <circle cx="75.686" cy="54.988" r="2.965"/>
      <path d="M52.313,57.953a2.965,2.965,0,1,0-2.964-2.965A2.965,2.965,0,0,0,52.313,57.953Z"/>
      <path d="M64,78.9A17.023,17.023,0,0,0,75.266,74.77a1.736,1.736,0,0,0,1.97-2.847L75.251,70.3a1.75,1.75,0,0,0-2.662,2.161,14.02,14.02,0,0,1-17.178,0A1.75,1.75,0,0,0,52.749,70.3l-1.985,1.627a1.734,1.734,0,0,0,1.97,2.847A17.023,17.023,0,0,0,64,78.9Z"/>
    </g>
  </g>
</svg>
