<?xml version="1.0" encoding="iso-8859-1"?>
<!-- Generator: Adobe Illustrator 19.0.0, SVG Export Plug-In . SVG Version: 6.00 Build 0)  -->
<svg version="1.1" id="Layer_1" xmlns="http://www.w3.org/2000/svg" xmlns:xlink="http://www.w3.org/1999/xlink" x="0px" y="0px"
	 viewBox="0 0 512 512" style="enable-background:new 0 0 512 512;" xml:space="preserve">
<g>
	<path style="fill:#5597CE;" d="M155.332,104.026v11.088c0,14.741-11.947,26.689-26.689,26.689H114.56v14.084
		c0,14.741-11.947,26.689-26.689,26.689H76.784c-14.741,0-26.701-11.947-26.701-26.689v-14.084H36.011
		c-14.741,0-26.689-11.947-26.689-26.689v-11.088c0-14.741,11.947-26.701,26.689-26.701h14.071V63.254
		c0-14.741,11.96-26.701,26.701-26.701h11.088c14.741,0,26.689,11.96,26.689,26.701v14.071h14.084
		C143.385,77.325,155.332,89.285,155.332,104.026z"/>
	<path style="fill:#5597CE;" d="M502.359,104.026v11.088c0,14.741-11.96,26.689-26.701,26.689h-14.071v14.084
		c0,14.741-11.947,26.689-26.689,26.689h-11.1c-14.741,0-26.689-11.947-26.689-26.689v-14.084h-14.071
		c-14.741,0-26.701-11.947-26.701-26.689v-11.088c0-14.741,11.96-26.701,26.701-26.701h14.071V63.254
		c0-14.741,11.947-26.701,26.689-26.701h11.1c14.741,0,26.689,11.96,26.689,26.701v14.071h14.071
		C490.399,77.325,502.359,89.285,502.359,104.026z"/>
</g>
<path style="fill:#F7729B;" d="M255.841,127.58c48.168,0,87.221,39.053,87.221,87.234c0,48.168-39.053,87.221-87.221,87.221
	c-48.181,0-87.234-39.053-87.234-87.221C168.607,166.633,207.66,127.58,255.841,127.58z"/>
<path style="fill:#E55C8D;" d="M198.949,214.815c0-43.003,31.118-78.708,72.062-85.891c-4.929-0.866-9.993-1.343-15.17-1.343
	c-48.181,0-87.234,39.053-87.234,87.234c0,48.168,39.053,87.221,87.234,87.221c5.177,0,10.241-0.477,15.17-1.343
	C230.067,293.51,198.949,257.806,198.949,214.815z"/>
<path style="fill:#FCD559;" d="M444.885,329.9c27.043,27.043,22.377,72.366-9.899,92.885
	c-54.439,34.603-116.792,51.91-179.146,51.91s-124.707-17.308-179.158-51.91c-32.264-20.519-36.929-65.843-9.887-92.885l1.504-1.504
	c19.95-19.95,50.95-23.073,74.844-8.066c68.624,43.086,156.756,43.086,225.38,0c23.895-15.007,54.894-11.884,74.844,8.066
	L444.885,329.9z M419.423,374.363c0.341-3.072,0.139-8.989-4.943-14.071l-1.504-1.504c-4.248-4.248-9.292-4.893-11.909-4.893
	c-3.388,0-6.738,0.986-9.684,2.832c-40.52,25.45-87.398,38.901-135.541,38.901c-48.156,0-95.022-13.452-135.554-38.901
	c-2.946-1.846-6.296-2.832-9.684-2.832c-2.617,0-7.661,0.645-11.897,4.88l-1.517,1.517c-5.082,5.082-5.272,10.999-4.931,14.071
	c0.316,2.958,1.732,8.483,7.484,12.137c46.525,29.571,100.496,45.21,156.098,45.21c55.589,0,109.561-15.639,156.086-45.21
	C417.691,382.846,419.095,377.322,419.423,374.363z"/>
<path d="M40.76,156.263c0,19.945,16.232,36.17,36.183,36.17H88.03c19.944,0,36.17-16.226,36.17-36.17v-4.602h4.602
	c19.944,0,36.17-16.226,36.17-36.17v-11.088c0-19.951-16.226-36.183-36.17-36.183h-4.602v-4.589
	c0-19.951-16.226-36.183-36.17-36.183H76.943c-19.951,0-36.183,16.232-36.183,36.183v4.589H36.17C16.226,68.22,0,84.452,0,104.403
	v11.088c0,19.945,16.226,36.17,36.17,36.17h4.589V156.263z M36.17,132.697c-9.488,0-17.207-7.718-17.207-17.207v-11.088
	c0-9.495,7.718-17.219,17.207-17.219h14.071c5.237,0,9.482-4.245,9.482-9.482V63.631c0-9.495,7.725-17.219,17.219-17.219H88.03
	c9.487,0,17.207,7.725,17.207,17.219v14.071c0,5.237,4.245,9.482,9.482,9.482h14.084c9.487,0,17.207,7.725,17.207,17.219v11.088
	c0,9.488-7.718,17.207-17.207,17.207h-14.084c-5.237,0-9.482,4.245-9.482,9.482v14.084c0,9.488-7.718,17.207-17.207,17.207H76.943
	c-9.495,0-17.219-7.718-17.219-17.207v-14.084c0-5.237-4.245-9.482-9.482-9.482C50.242,132.697,36.17,132.697,36.17,132.697z"/>
<path d="M475.817,68.22h-4.589v-4.589c0-19.951-16.225-36.183-36.17-36.183h-11.1c-19.944,0-36.17,16.232-36.17,36.183v4.589h-4.589
	c-19.951,0-36.183,16.232-36.183,36.183v11.088c0,19.945,16.232,36.17,36.183,36.17h4.589v4.602c0,19.945,16.225,36.17,36.17,36.17
	h11.1c19.945,0,36.17-16.226,36.17-36.17v-4.602h4.589c19.951,0,36.183-16.226,36.183-36.17v-11.088
	C512,84.452,495.769,68.22,475.817,68.22z M493.036,115.491c0,9.488-7.725,17.207-17.219,17.207h-14.071
	c-5.237,0-9.482,4.245-9.482,9.482v14.084c0,9.488-7.718,17.207-17.207,17.207h-11.1c-9.487,0-17.207-7.718-17.207-17.207v-14.084
	c0-5.237-4.245-9.482-9.482-9.482h-14.071c-9.495,0-17.219-7.718-17.219-17.207v-11.088c0-9.495,7.725-17.219,17.219-17.219h14.071
	c5.237,0,9.482-4.245,9.482-9.482V63.631c0-9.495,7.718-17.219,17.207-17.219h11.1c9.488,0,17.207,7.725,17.207,17.219v14.071
	c0,5.237,4.245,9.482,9.482,9.482h14.071c9.495,0,17.219,7.725,17.219,17.219L493.036,115.491L493.036,115.491z"/>
<path d="M256,311.894c53.323,0,96.703-43.381,96.703-96.703c0-23.037-8.235-45.354-23.189-62.838
	c-3.403-3.98-9.388-4.446-13.37-1.043c-3.979,3.403-4.446,9.39-1.043,13.37c12.018,14.051,18.636,31.99,18.636,50.511
	c0,42.866-34.873,77.739-77.739,77.739c-42.872,0-77.752-34.873-77.752-77.739c0-42.872,34.88-77.752,77.752-77.752
	c12.31,0,24.078,2.79,34.978,8.294c4.677,2.36,10.378,0.485,12.737-4.19c2.36-4.675,0.484-10.377-4.19-12.737
	c-13.576-6.854-28.22-10.329-43.526-10.329c-53.329,0-96.716,43.387-96.716,96.716C159.284,268.513,202.671,311.894,256,311.894z"/>
<path d="M450.233,322.067c-23.065-23.065-58.672-26.926-86.592-9.392c-65.393,41.058-149.902,41.057-215.295,0.001
	c-27.921-17.538-63.528-13.676-86.592,9.391l-1.504,1.504c-15.026,15.026-22.31,35.767-19.988,56.906
	c2.302,20.948,13.779,39.422,31.493,50.687c54.964,34.928,118.674,53.388,184.243,53.388c65.575,0,129.281-18.462,184.233-53.39
	c17.716-11.262,29.198-29.737,31.503-50.685c2.325-21.138-4.96-41.88-20.013-56.935L450.233,322.067z M452.886,378.405
	c-1.671,15.199-9.991,28.596-22.826,36.755c-51.905,32.992-112.094,50.43-174.06,50.43c-61.961,0-122.155-17.438-174.07-50.429
	c-12.83-8.16-21.146-21.556-22.816-36.755c-1.692-15.39,3.609-30.489,14.547-41.425l1.504-1.504
	c9.727-9.727,22.543-14.745,35.569-14.745c9.43,0,18.97,2.63,27.529,8.005c71.52,44.904,163.945,44.904,235.465-0.001
	c20.382-12.799,46.328-10.028,63.124,6.769l1.489,1.477C449.276,347.917,454.579,363.015,452.886,378.405z"/>
<path d="M419.839,352.46c-6.673-6.674-14.526-7.67-18.614-7.67c-5.162,0-10.251,1.479-14.727,4.285
	c-39.006,24.499-84.131,37.449-130.498,37.449c-46.362,0-91.492-12.95-130.518-37.454c-4.468-2.8-9.558-4.28-14.72-4.28
	c-4.087,0-11.938,0.995-18.601,7.658l-1.518,1.518c-5.762,5.763-8.55,13.717-7.654,21.782c0.846,7.922,5.158,14.896,11.826,19.132
	c15.459,9.826,31.912,18.266,48.902,25.085c4.859,1.949,10.38-0.407,12.332-5.267c1.951-4.86-0.407-10.381-5.267-12.332
	c-15.908-6.386-31.316-14.29-45.795-23.492c-2.297-1.459-2.976-3.602-3.144-5.181c-0.273-2.453,0.472-4.579,2.211-6.319l1.517-1.517
	c1.831-1.829,4.039-2.104,5.192-2.104c1.596,0,3.204,0.479,4.641,1.381c42.045,26.399,90.663,40.353,140.596,40.353
	c49.938,0,98.553-13.954,140.576-40.349c1.446-0.906,3.054-1.386,4.65-1.386c1.154,0,3.364,0.274,5.205,2.115l1.504,1.504
	c2.177,2.177,2.411,4.637,2.224,6.319c-0.253,2.271-1.312,4.012-3.159,5.184c-45.01,28.608-97.224,43.729-150.999,43.729
	c-26.555,0-52.861-3.688-78.191-10.961c-5.034-1.448-10.286,1.463-11.73,6.497c-1.446,5.033,1.463,10.285,6.497,11.73
	c27.031,7.763,55.099,11.698,83.425,11.698c57.384,0,113.116-16.145,161.162-46.683c9.1-5.768,11.327-14.442,11.845-19.098
	c0.9-8.099-1.893-16.054-7.663-21.824L419.839,352.46z"/>
<g>
</g>
<g>
</g>
<g>
</g>
<g>
</g>
<g>
</g>
<g>
</g>
<g>
</g>
<g>
</g>
<g>
</g>
<g>
</g>
<g>
</g>
<g>
</g>
<g>
</g>
<g>
</g>
<g>
</g>
</svg>
